<svg width="1000" height="1000" viewBox="0 0 1000 1000" fill="none" xmlns="http://www.w3.org/2000/svg">
<rect width="1000" height="1000" fill="white"/>
<rect width="1000" height="1000" fill="url(#paint0_linear)"/>
<path d="M188 458V495H252.8V521H188V572H155.6V432H261.4V458H188ZM368.8 572L335 523.4L301.8 572H264.6L316.4 500.8L267.2 432H304L336.2 477.4L367.8 432H402.8L354 499.6L406.2 572H368.8ZM485.295 574.4C471.029 574.4 458.095 571.333 446.495 565.2C435.029 558.933 425.962 550.333 419.295 539.4C412.762 528.333 409.495 515.867 409.495 502C409.495 488.133 412.762 475.733 419.295 464.8C425.962 453.733 435.029 445.133 446.495 439C458.095 432.733 471.095 429.6 485.495 429.6C497.629 429.6 508.562 431.733 518.295 436C528.162 440.267 536.429 446.4 543.095 454.4L522.295 473.6C512.829 462.667 501.095 457.2 487.095 457.2C478.429 457.2 470.695 459.133 463.895 463C457.095 466.733 451.762 472 447.895 478.8C444.162 485.6 442.295 493.333 442.295 502C442.295 510.667 444.162 518.4 447.895 525.2C451.762 532 457.095 537.333 463.895 541.2C470.695 544.933 478.429 546.8 487.095 546.8C501.095 546.8 512.829 541.267 522.295 530.2L543.095 549.4C536.429 557.533 528.162 563.733 518.295 568C508.429 572.267 497.429 574.4 485.295 574.4ZM698.794 432L638.194 572H606.194L545.794 432H580.794L623.394 532L666.594 432H698.794ZM710.483 432H774.083C789.283 432 802.683 434.933 814.283 440.8C826.016 446.533 835.083 454.667 841.483 465.2C848.016 475.733 851.283 488 851.283 502C851.283 516 848.016 528.267 841.483 538.8C835.083 549.333 826.016 557.533 814.283 563.4C802.683 569.133 789.283 572 774.083 572H710.483V432ZM772.483 545.4C786.483 545.4 797.616 541.533 805.883 533.8C814.283 525.933 818.483 515.333 818.483 502C818.483 488.667 814.283 478.133 805.883 470.4C797.616 462.533 786.483 458.6 772.483 458.6H742.883V545.4H772.483Z" fill="white"/>
<defs>
<linearGradient id="paint0_linear" x1="0" y1="0" x2="1071.81" y2="84.0301" gradientUnits="userSpaceOnUse">
<stop stop-color="#211052"/>
<stop offset="1" stop-color="#2B3095"/>
</linearGradient>
</defs>
</svg>